<svg id="Group_1621" data-name="Group 1621" xmlns="http://www.w3.org/2000/svg" viewBox="0 0 28 25.7">
  <g id="Group_1622" data-name="Group 1622">
    <path id="Pfad_570_1_" fill="rgba(0, 0, 0, 0.54)" d="M16,7.7H15v-2H13v2H5v-2H3v2H2a2.006,2.006,0,0,0-2,2H0v14a2.006,2.006,0,0,0,2,2H16a2.006,2.006,0,0,0,2-2V9.7A2.006,2.006,0,0,0,16,7.7Zm0,16H2v-11H16Zm-12-9H9v5H4Z"/>
    <path id="Path_1089" data-name="Path 1089" fill="rgba(0, 0, 0, 0.54)" d="M22.5,1.3,23.8,0A14.354,14.354,0,0,1,28,10.2H26.2a12.463,12.463,0,0,0-3.7-8.9M20.2,3.5l1.3-1.3a11.187,11.187,0,0,1,3.3,7.9H23A9.069,9.069,0,0,0,20.2,3.5ZM18,5.8l1.3-1.3a8.018,8.018,0,0,1,2.4,5.7H19.9A6.837,6.837,0,0,0,18,5.8Z"/>
  </g>
</svg>
