<svg xmlns="http://www.w3.org/2000/svg" viewBox="0 0 20.494 19.404">
  <g id="organization" transform="translate(0.327 -9.346)">
    <g id="Group_998" data-name="Group 998" transform="translate(0 9.496)">
      <path id="Path_926" data-name="Path 926" fill="#000" d="M18.1,21.126l-.025-.014c.02-.231.03-.464.03-.7A8.2,8.2,0,0,0,13.393,13c0-.01,0-.02,0-.03a3.473,3.473,0,0,0-6.947,0c0,.01,0,.02,0,.03a8.2,8.2,0,0,0-4.715,7.413c0,.236.011.469.03.7l-.025.014a3.474,3.474,0,1,0,3.474,6.016l.027-.017a8.169,8.169,0,0,0,9.364,0l.027.017A3.473,3.473,0,1,0,18.1,21.126ZM9.92,10.985a1.985,1.985,0,1,1-1.985,1.985A1.987,1.987,0,0,1,9.92,10.985ZM5.391,24.648A1.987,1.987,0,0,1,3.477,26.12a1.985,1.985,0,0,1-.007-3.971h0a1.993,1.993,0,0,1,1.722.993A1.972,1.972,0,0,1,5.391,24.648Zm8.1,1.432a6.685,6.685,0,0,1-7.136,0,3.474,3.474,0,0,0-2.881-5.42h0c-.081,0-.163,0-.244.009,0-.085-.005-.171-.005-.256A6.7,6.7,0,0,1,6.8,14.488a3.474,3.474,0,0,0,6.249,0,6.7,6.7,0,0,1,3.575,5.924c0,.086,0,.171-.005.256-.081-.006-.163-.009-.244-.009h0a3.475,3.475,0,0,0-2.881,5.42Zm4.6-.953a1.985,1.985,0,1,1-1.716-2.978h0a1.986,1.986,0,0,1,1.715,2.978Z" transform="translate(0 -9.496)"/>
    </g>
  </g>
</svg>
