<svg xmlns="http://www.w3.org/2000/svg" viewBox="0 0 19.398 15.762">
  
  <path id="twitter" fill="#03a9f4" d="M19.4,49.866a8.292,8.292,0,0,1-2.291.628,3.955,3.955,0,0,0,1.75-2.2,7.948,7.948,0,0,1-2.522.963,3.977,3.977,0,0,0-6.879,2.719,4.1,4.1,0,0,0,.092.907,11.257,11.257,0,0,1-8.2-4.16A3.978,3.978,0,0,0,2.573,54.04a3.927,3.927,0,0,1-1.8-.49v.044A4,4,0,0,0,3.962,57.5a3.969,3.969,0,0,1-1.043.131,3.516,3.516,0,0,1-.753-.068,4.015,4.015,0,0,0,3.716,2.77,7.991,7.991,0,0,1-4.931,1.7A7.449,7.449,0,0,1,0,61.977a11.2,11.2,0,0,0,6.1,1.785A11.241,11.241,0,0,0,17.42,52.445c0-.176-.006-.346-.015-.514A7.934,7.934,0,0,0,19.4,49.866Z" transform="translate(0 -48)"/>
</svg>
