<svg xmlns="http://www.w3.org/2000/svg" viewBox="0 0 19.762 16.641">
  
  <path id="vimeo" fill="#69b4e5" d="M18.944,35.086a2.8,2.8,0,0,0-2.058-.816c-2.505-.081-4.277,1.252-5.266,3.961a.4.4,0,0,0,.484.527,3.168,3.168,0,0,1,.838-.118,1.372,1.372,0,0,1,1.093.387,1.23,1.23,0,0,1,.075,1.094,15.3,15.3,0,0,1-1.435,2.638c-.89,1.4-1.381,2.025-1.523,2.025-.469,0-2.166-7.522-2.212-7.687-.487-1.724-.731-2.589-2.313-2.589-1.206,0-3.9,2.2-6.1,4.12l-.339.293a.525.525,0,0,0-.073.722l.412.53a.524.524,0,0,0,.72.106l.023-.016a4.673,4.673,0,0,1,1.9-1.015c.554-.027,1.034.838,1.607,2.9,1.091,4,2.748,8.764,4.449,8.764,1.777,0,3.9-1.507,6.639-5.074,2.481-3.228,3.809-5.789,3.894-7.652h0A4.177,4.177,0,0,0,18.944,35.086Z" transform="translate(0 -34.266)"/>
</svg>
