<svg xmlns="http://www.w3.org/2000/svg" viewBox="0 0 22 15.568">
  <defs>
    <style>
      .cls-1 {
        fill: #f61c0d;
      }
    </style>
  </defs>
  <path id="youtube" class="cls-1" d="M17.431,67.393H4.569A4.569,4.569,0,0,0,0,71.962v6.43a4.569,4.569,0,0,0,4.569,4.569H17.431A4.569,4.569,0,0,0,22,78.392v-6.43A4.569,4.569,0,0,0,17.431,67.393Zm-3.09,8.1L8.325,78.359a.241.241,0,0,1-.345-.218V72.223a.241.241,0,0,1,.351-.215l6.016,3.049A.241.241,0,0,1,14.341,75.49Z" transform="translate(0 -67.393)"/>
</svg>
